<?xml version="1.0" encoding="iso-8859-1"?>
<!-- Generator: Adobe Illustrator 16.0.0, SVG Export Plug-In . SVG Version: 6.00 Build 0)  -->
<!DOCTYPE svg PUBLIC "-//W3C//DTD SVG 1.1//EN" "http://www.w3.org/Graphics/SVG/1.1/DTD/svg11.dtd">
<svg xmlns="http://www.w3.org/2000/svg" xmlns:xlink="http://www.w3.org/1999/xlink" version="1.1" id="Capa_1" x="0px" y="0px" width="160px" height="80px" viewBox="-512 0 1024 512" style="enable-background:new 0 0 512 512;" xml:space="preserve">
<g>
	<path d="M432,352c-22.58,0-42.961,9.369-57.506,24.415L158.992,268.664C159.649,264.538,160,260.311,160,256   c0-4.311-0.351-8.538-1.008-12.663l215.502-107.751C389.039,150.631,409.42,160,432,160c44.184,0,80-35.817,80-80S476.184,0,432,0   s-80,35.817-80,80c0,4.311,0.352,8.538,1.008,12.663L137.506,200.415C122.96,185.37,102.58,176,80,176c-44.183,0-80,35.818-80,80   c0,44.184,35.817,80,80,80c22.58,0,42.96-9.369,57.506-24.414l215.502,107.751C352.352,423.462,352,427.689,352,432   c0,44.184,35.816,80,80,80s80-35.816,80-80C512,387.818,476.184,352,432,352z" fill="#FFFFFF"/>
</g>
</svg>
